<?xml version="1.0" encoding="UTF-8"?><!DOCTYPE svg PUBLIC "-//W3C//DTD SVG 1.1//EN" "http://www.w3.org/Graphics/SVG/1.1/DTD/svg11.dtd"><svg xmlns="http://www.w3.org/2000/svg"><symbol id="icon-about01"><path d="M0 8c0 4.4 3.6 8 8 8s8-3.6 8-8-3.6-8-8-8-8 3.6-8 8zm9 5H7V7h2v6zm0-8H7V3h2v2z"/></symbol><symbol id="icon-arrowLeft"><g><path d="M7.7 15.3L.4 8 7.7.7l1.1 1.1L2.6 8l6.2 6.2z"/><path d="M2 7h12v2H2z"/></g></symbol><symbol id="icon-arrowRight"><g><path d="M7.8 15.3l-1.1-1.1L12.9 8 6.7 1.8 7.8.7 15.1 8z"/><path d="M2 7h12v2H2z"/></g></symbol><symbol id="icon-components01"><g><path d="M8.5 2h-1c-.3 0-.5-.2-.5-.5v-1c0-.3.2-.5.5-.5h1c.3 0 .5.2.5.5v1c0 .3-.2.5-.5.5zM8.5 16h-1c-.3 0-.5-.2-.5-.5v-1c0-.3.2-.5.5-.5h1c.3 0 .5.2.5.5v1c0 .3-.2.5-.5.5zM14 8.5v-1c0-.3.2-.5.5-.5h1c.3 0 .5.2.5.5v1c0 .3-.2.5-.5.5h-1c-.3 0-.5-.2-.5-.5zM0 8.5v-1c0-.3.2-.5.5-.5h1c.3 0 .5.2.5.5v1c0 .3-.2.5-.5.5h-1C.2 9 0 8.8 0 8.5zM3.5 4h-1c-.3 0-.5-.2-.5-.5v-1c0-.3.2-.5.5-.5h1c.3 0 .5.2.5.5v1c0 .3-.2.5-.5.5zM6.5 7h-1c-.3 0-.5-.2-.5-.5v-1c0-.3.2-.5.5-.5h1c.3 0 .5.2.5.5v1c0 .3-.2.5-.5.5zM10.5 7h-1c-.3 0-.5-.2-.5-.5v-1c0-.3.2-.5.5-.5h1c.3 0 .5.2.5.5v1c0 .3-.2.5-.5.5zM8.5 9h-1c-.3 0-.5-.2-.5-.5v-1c0-.3.2-.5.5-.5h1c.3 0 .5.2.5.5v1c0 .3-.2.5-.5.5zM6.5 11h-1c-.3 0-.5-.2-.5-.5v-1c0-.3.2-.5.5-.5h1c.3 0 .5.2.5.5v1c0 .3-.2.5-.5.5zM10.5 11h-1c-.3 0-.5-.2-.5-.5v-1c0-.3.2-.5.5-.5h1c.3 0 .5.2.5.5v1c0 .3-.2.5-.5.5zM14 12.5v1c0 .3-.2.5-.5.5h-1c-.3 0-.5-.2-.5-.5v-1c0-.3.2-.5.5-.5h1c.3 0 .5.2.5.5zM12 3.5v-1c0-.3.2-.5.5-.5h1c.3 0 .5.2.5.5v1c0 .3-.2.5-.5.5h-1c-.3 0-.5-.2-.5-.5zM3.5 14h-1c-.3 0-.5-.2-.5-.5v-1c0-.3.2-.5.5-.5h1c.3 0 .5.2.5.5v1c0 .3-.2.5-.5.5z"/></g></symbol><symbol id="icon-css"><path d="M2.381 0l-.537 3h10.934l-.342 2H1.496l-.53 3h10.933l-.61 2.995-4.406 1.426-3.819-1.276L3.325 10H.639L0 13.024l6.316 2.317 7.281-2.346L16 0H2.381z"/></symbol><symbol id="icon-download01"><path d="M5 5h10V1H4a4 4 0 0 0-4 4v6a4 4 0 0 0 4 4h11v-4H5a1 1 0 0 1-1-1V6a1 1 0 0 1 1-1zm6-3h3v2h-3V2zm0 10h3v2h-3v-2z"/></symbol><symbol id="icon-dribble"><path d="M8 16c-4.411 0-8-3.589-8-8s3.589-8 8-8 8 3.589 8 8-3.589 8-8 8zm6.747-6.905c-.234-.073-2.115-.635-4.256-.292.894 2.456 1.257 4.456 1.327 4.872a6.848 6.848 0 0 0 2.929-4.58zm-4.078 5.206c-.102-.6-.498-2.689-1.458-5.182l-.045.015c-3.854 1.343-5.238 4.017-5.361 4.268a6.808 6.808 0 0 0 4.194 1.441c.947 0 1.849-.193 2.669-.543l.001.001zm-7.746-1.722c.155-.265 2.03-3.37 5.554-4.509.089-.029.179-.057.269-.081a22.726 22.726 0 0 0-.554-1.16c-3.412 1.021-6.724.979-7.023.972a6.805 6.805 0 0 0 1.754 4.778zM1.311 6.611c.306.004 3.121.016 6.317-.833a43.573 43.573 0 0 0-2.533-3.952 6.856 6.856 0 0 0-3.784 4.785zm5.088-5.244c.189.253 1.43 1.942 2.55 4 2.43-.911 3.458-2.293 3.581-2.468A6.803 6.803 0 0 0 8 1.177c-.551 0-1.088.066-1.601.19zm6.89 2.323c-.144.194-1.289 1.662-3.816 2.693a21.034 21.034 0 0 1 .6 1.343c2.274-.285 4.533.173 4.758.221a6.8 6.8 0 0 0-1.542-4.257z"/></symbol><symbol id="icon-dropbox"><g><path d="M11.5.5L8 3.5l4.5 3 3.5-3-4.5-3zM8 3.5L4.5.5 0 3.5l3.5 3 4.5-3zM12.5 6.5l3.5 3-4.5 2.5L8 9l4.5-2.5zM8 9L3.5 6.5 0 9.5 4.5 12 8 9z"/><path d="M11.127 13.212l-3.252-2.894-3.565 2.894L2 12.033V13.5L7.5 16l5.5-2.5v-1.467l-1.873 1.179z"/></g></symbol><symbol id="icon-facebook"><path d="M7.923 0C6.224 0 5 1.377 5 3.077V6H2v3h3v7h3V9h3.077l.615-3H8V4.077C8 3.737 8.583 3 8.923 3H11V0H7.923z"/></symbol><symbol id="icon-flickr"><path d="M0 8.5a3.5 3.5 0 1 1 7 0 3.5 3.5 0 0 1-7 0zm9 0a3.5 3.5 0 1 1 7 0 3.5 3.5 0 0 1-7 0z"/></symbol><symbol id="icon-folder01"><path d="M15 4h-4L8 1H1c-.6 0-1 .4-1 1v13c0 .6.4 1 1 1h14c.6 0 1-.4 1-1V5c0-.6-.4-1-1-1z"/></symbol><symbol id="icon-folder02"><g><path d="M7 2H1c-.6 0-1 .4-1 1v4h8V6h8V5c0-.6-.4-1-1-1H8V3c0-.6-.4-1-1-1zM9 8H0v7c0 .6.4 1 1 1h14c.6 0 1-.4 1-1V7H9v1z"/></g></symbol><symbol id="icon-folderDisabled"><g><path d="M10.3 4.3L8 2H1c-.6 0-1 .4-1 1v4l.9 6.6 9.4-9.3zM15 5h-2.6l-9 9H14c.6 0 1-.4 1-1l1-7c0-.6-.4-1-1-1zM12.8 1.2L.3 13.7"/></g></symbol><symbol id="icon-home01"><path d="M16 9.226l-8-6.21-8 6.21V6.694l8-6.21 8 6.21v2.532zM14 9v6h-4v-4H6v4H2V9l6-4.5L14 9z"/></symbol><symbol id="icon-html"><path d="M.946 0L2.23 14.4 7.992 16l5.777-1.602L15.055 0H.946zM12.26 5H5.502l.161 2H12.1l-.485 5.181-3.623.884-3.618-1.148L4.127 9H5.9l.126 1.493 1.967.572.004.02 1.968-.663L10.169 8H4.048l-.476-5h8.847l-.158 2h-.001z"/></symbol><symbol id="icon-instagram"><path d="M13.344 0H2.656A2.664 2.664 0 0 0 0 2.656v10.688A2.664 2.664 0 0 0 2.656 16h10.688A2.664 2.664 0 0 0 16 13.344V2.656A2.664 2.664 0 0 0 13.344 0zM5.122 7h5.756A3.05 3.05 0 0 1 8 11.047 3.05 3.05 0 0 1 5.122 7zM14 13c0 .55-.45 1-1 1H3c-.55 0-1-.45-1-1V7h1.564A4.552 4.552 0 0 0 8 12.547 4.552 4.552 0 0 0 12.436 7L14 7.001V13zm0-9h-2V2h2v2z"/></symbol><symbol id="icon-js"><g><path d="M4.708 16H2.855a.5.5 0 0 1-.436-.745l8.438-15A.498.498 0 0 1 11.292 0h1.853a.5.5 0 0 1 .436.745l-8.438 15a.498.498 0 0 1-.435.255z"/><circle cx="12" cy="14" r="2"/></g></symbol><symbol id="icon-save"><g><path d="M3 0h7v3H3z"/><path d="M16 15.5V4l-4-4h-1v4H2V0H.5C.2 0 0 .2 0 .5v15c0 .3.2.5.5.5h15c.3 0 .5-.2.5-.5zM2 7h12v7H2V7z"/><path d="M9 11h4v2H9z"/></g></symbol><symbol id="icon-twitter"><path d="M16 3.038a6.555 6.555 0 0 1-1.885.517 3.283 3.283 0 0 0 1.442-1.815 6.618 6.618 0 0 1-2.085.797A3.283 3.283 0 0 0 7.878 5.53a9.324 9.324 0 0 1-6.765-3.431 3.266 3.266 0 0 0-.444 1.65c0 1.139.758 2.144 1.639 2.732C1.77 6.464 1 6.316 1 6.07v.041c0 1.59.954 2.917 2.455 3.219a4.002 4.002 0 0 1-.955.115c-.212 0-.462-.021-.663-.06a3.257 3.257 0 0 0 3.044 2.28 6.62 6.62 0 0 1-4.877 1.359A9.277 9.277 0 0 0 5.033 14.5c6.038 0 9.338-5.002 9.338-9.34 0-.143-.004-.284-.01-.425a6.661 6.661 0 0 0 1.637-1.699l.002.002z"/></symbol></svg>