<?xml version="1.0" encoding="utf-8"?>
<!-- Generator: Adobe Illustrator 18.0.0, SVG Export Plug-In . SVG Version: 6.00 Build 0)  -->
<!DOCTYPE svg PUBLIC "-//W3C//DTD SVG 1.1//EN" "http://www.w3.org/Graphics/SVG/1.1/DTD/svg11.dtd">
<svg version="1.1" xmlns="http://www.w3.org/2000/svg" xmlns:xlink="http://www.w3.org/1999/xlink" x="0px" y="0px"
	 viewBox="0 0 16 16" enable-background="new 0 0 16 16" xml:space="preserve">
<g id="Layer_101">
</g>
<g id="Layer_100">
</g>
<g id="Layer_99">
</g>
<g id="Layer_98">
</g>
<g id="Layer_97">
</g>
<g id="Layer_96">
</g>
<g id="Layer_95">
</g>
<g id="Layer_94">
</g>
<g id="Layer_93">
</g>
<g id="Layer_92">
</g>
<g id="Layer_91">
</g>
<g id="Layer_90">
</g>
<g id="Layer_89">
</g>
<g id="Layer_88">
</g>
<g id="Layer_87">
</g>
<g id="Layer_86">
</g>
<g id="Layer_85">
</g>
<g id="Layer_84">
</g>
<g id="Layer_83">
</g>
<g id="Layer_82">
</g>
<g id="Layer_81">
</g>
<g id="Layer_80">
</g>
<g id="Layer_79">
</g>
<g id="Layer_78">
</g>
<g id="Layer_77">
</g>
<g id="Layer_76">
	<path fill="#3A4047" d="M8.5,2h-1C7.2,2,7,1.8,7,1.5v-1C7,0.2,7.2,0,7.5,0h1C8.8,0,9,0.2,9,0.5v1C9,1.8,8.8,2,8.5,2z"/>
	<path fill="#3A4047" d="M8.5,16h-1C7.2,16,7,15.8,7,15.5v-1C7,14.2,7.2,14,7.5,14h1C8.8,14,9,14.2,9,14.5v1C9,15.8,8.8,16,8.5,16z"
		/>
	<path fill="#3A4047" d="M14,8.5v-1C14,7.2,14.2,7,14.5,7h1C15.8,7,16,7.2,16,7.5v1C16,8.8,15.8,9,15.5,9h-1C14.2,9,14,8.8,14,8.5z"
		/>
	<path fill="#3A4047" d="M0,8.5v-1C0,7.2,0.2,7,0.5,7h1C1.8,7,2,7.2,2,7.5v1C2,8.8,1.8,9,1.5,9h-1C0.2,9,0,8.8,0,8.5z"/>
	<path fill="#3A4047" d="M3.5,4h-1C2.2,4,2,3.8,2,3.5v-1C2,2.2,2.2,2,2.5,2h1C3.8,2,4,2.2,4,2.5v1C4,3.8,3.8,4,3.5,4z"/>
	<path fill="#3A4047" d="M6.5,7h-1C5.2,7,5,6.8,5,6.5v-1C5,5.2,5.2,5,5.5,5h1C6.8,5,7,5.2,7,5.5v1C7,6.8,6.8,7,6.5,7z"/>
	<path fill="#3A4047" d="M10.5,7h-1C9.2,7,9,6.8,9,6.5v-1C9,5.2,9.2,5,9.5,5h1C10.8,5,11,5.2,11,5.5v1C11,6.8,10.8,7,10.5,7z"/>
	<path fill="#3A4047" d="M8.5,9h-1C7.2,9,7,8.8,7,8.5v-1C7,7.2,7.2,7,7.5,7h1C8.8,7,9,7.2,9,7.5v1C9,8.8,8.8,9,8.5,9z"/>
	<path fill="#3A4047" d="M6.5,11h-1C5.2,11,5,10.8,5,10.5v-1C5,9.2,5.2,9,5.5,9h1C6.8,9,7,9.2,7,9.5v1C7,10.8,6.8,11,6.5,11z"/>
	<path fill="#3A4047" d="M10.5,11h-1C9.2,11,9,10.8,9,10.5v-1C9,9.2,9.2,9,9.5,9h1C10.8,9,11,9.2,11,9.5v1C11,10.8,10.8,11,10.5,11z
		"/>
	<path fill="#3A4047" d="M14,12.5v1c0,0.3-0.2,0.5-0.5,0.5h-1c-0.3,0-0.5-0.2-0.5-0.5v-1c0-0.3,0.2-0.5,0.5-0.5h1
		C13.8,12,14,12.2,14,12.5z"/>
	<path fill="#3A4047" d="M12,3.5v-1C12,2.2,12.2,2,12.5,2h1C13.8,2,14,2.2,14,2.5v1C14,3.8,13.8,4,13.5,4h-1C12.2,4,12,3.8,12,3.5z"
		/>
	<path fill="#3A4047" d="M3.5,14h-1C2.2,14,2,13.8,2,13.5v-1C2,12.2,2.2,12,2.5,12h1C3.8,12,4,12.2,4,12.5v1C4,13.8,3.8,14,3.5,14z"
		/>
</g>
<g id="Layer_75">
</g>
<g id="Layer_74">
</g>
<g id="Layer_73">
</g>
<g id="Layer_72">
</g>
<g id="Layer_71">
</g>
<g id="Layer_70">
</g>
<g id="Layer_69">
</g>
<g id="Layer_68">
</g>
<g id="Layer_67">
</g>
<g id="Layer_66">
</g>
<g id="Layer_65">
</g>
<g id="Layer_64">
</g>
<g id="Layer_63">
</g>
<g id="Layer_62">
</g>
<g id="Layer_61">
</g>
<g id="Layer_60">
</g>
<g id="Layer_59">
</g>
<g id="Layer_58">
</g>
<g id="Layer_57">
</g>
<g id="Layer_56">
</g>
<g id="Layer_55">
</g>
<g id="Layer_54">
</g>
<g id="Layer_53">
</g>
<g id="Layer_52">
</g>
<g id="Layer_51">
</g>
<g id="Layer_50">
</g>
<g id="Layer_49">
</g>
<g id="Layer_48">
</g>
<g id="Layer_47">
</g>
<g id="Layer_46">
</g>
<g id="Layer_45">
</g>
<g id="Layer_44">
</g>
<g id="Layer_43">
</g>
<g id="Layer_42">
</g>
<g id="Layer_41">
</g>
<g id="Layer_40">
</g>
<g id="Layer_39">
</g>
<g id="Layer_38">
</g>
<g id="Layer_37">
</g>
<g id="Layer_36">
</g>
<g id="Layer_35">
</g>
<g id="Layer_34">
</g>
<g id="Layer_33">
</g>
<g id="Layer_32">
</g>
<g id="Layer_31">
</g>
<g id="Layer_30">
</g>
<g id="Layer_29">
</g>
<g id="Layer_28">
</g>
<g id="Layer_27">
</g>
<g id="Layer_26">
</g>
<g id="Layer_25">
</g>
<g id="Layer_24">
</g>
<g id="Layer_23">
</g>
<g id="Layer_22">
</g>
<g id="Layer_21">
</g>
<g id="Layer_20">
</g>
<g id="Layer_19">
</g>
<g id="Layer_18">
</g>
<g id="Layer_17">
</g>
<g id="Layer_16">
</g>
<g id="Layer_15">
</g>
<g id="Layer_14">
</g>
<g id="Layer_13">
</g>
<g id="Layer_12">
</g>
<g id="Layer_11">
</g>
<g id="Layer_10">
</g>
<g id="Layer_9">
</g>
<g id="Layer_8">
</g>
<g id="Layer_7">
</g>
<g id="Layer_6">
</g>
<g id="Layer_5">
</g>
<g id="Layer_4">
</g>
<g id="Layer_3">
</g>
<g id="Layer_2">
</g>
<g id="Layer_1">
</g>
</svg>
