<?xml version="1.0" encoding="utf-8"?>
<!-- Generator: Adobe Illustrator 18.0.0, SVG Export Plug-In . SVG Version: 6.00 Build 0)  -->
<!DOCTYPE svg PUBLIC "-//W3C//DTD SVG 1.1//EN" "http://www.w3.org/Graphics/SVG/1.1/DTD/svg11.dtd">
<svg version="1.1" xmlns="http://www.w3.org/2000/svg" xmlns:xlink="http://www.w3.org/1999/xlink" x="0px" y="0px"
	 viewBox="0 0 16 16" enable-background="new 0 0 16 16" xml:space="preserve">
<g id="Layer_1">
</g>
<g id="Layer_101">
</g>
<g id="Layer_100">
</g>
<g id="Layer_99">
</g>
<g id="Layer_98">
</g>
<g id="Layer_97">
</g>
<g id="Layer_96">
</g>
<g id="Layer_95">
</g>
<g id="Layer_94">
</g>
<g id="Layer_93">
</g>
<g id="Layer_92">
</g>
<g id="Layer_91">
</g>
<g id="Layer_90">
</g>
<g id="Layer_89">
</g>
<g id="Layer_88">
</g>
<g id="Layer_87">
</g>
<g id="Layer_86">
</g>
<g id="Layer_85">
</g>
<g id="Layer_84">
</g>
<g id="Layer_83">
</g>
<g id="Layer_82">
</g>
<g id="Layer_81">
</g>
<g id="Layer_80">
</g>
<g id="Layer_79">
</g>
<g id="Layer_78">
</g>
<g id="Layer_77">
</g>
<g id="Layer_76">
</g>
<g id="Layer_75">
</g>
<g id="Layer_74">
</g>
<g id="Layer_73">
</g>
<g id="Layer_72">
</g>
<g id="Layer_71">
</g>
<g id="Layer_70">
</g>
<g id="Layer_69">
</g>
<g id="Layer_68">
</g>
<g id="Layer_67">
</g>
<g id="Layer_66">
</g>
<g id="Layer_65">
</g>
<g id="Layer_64">
</g>
<g id="Layer_63">
</g>
<g id="Layer_62">
</g>
<g id="Layer_61">
</g>
<g id="Layer_60">
</g>
<g id="Layer_59">
</g>
<g id="Layer_58">
</g>
<g id="Layer_57">
</g>
<g id="Layer_56">
</g>
<g id="Layer_55">
</g>
<g id="Layer_54">
</g>
<g id="Layer_53">
</g>
<g id="Layer_52">
</g>
<g id="Layer_51">
</g>
<g id="Layer_50">
</g>
<g id="Layer_49">
</g>
<g id="Layer_48">
</g>
<g id="Layer_47">
</g>
<g id="Layer_46">
</g>
<g id="Layer_45">
</g>
<g id="Layer_44">
</g>
<g id="Layer_43">
</g>
<g id="Layer_42">
</g>
<g id="Layer_41">
</g>
<g id="Layer_40">
</g>
<g id="Layer_39">
</g>
<g id="Layer_38">
</g>
<g id="Layer_37">
</g>
<g id="Layer_36">
</g>
<g id="Layer_35">
</g>
<g id="Layer_34">
</g>
<g id="Layer_33">
</g>
<g id="Layer_32">
</g>
<g id="Layer_31">
</g>
<g id="Layer_30">
	<path fill="#3F3F3F" d="M8,16c-4.411,0-8-3.589-8-8s3.589-8,8-8c4.411,0,8,3.589,8,8S12.411,16,8,16z M14.747,9.095
		c-0.234-0.073-2.115-0.635-4.256-0.292c0.894,2.456,1.257,4.456,1.327,4.872C13.351,12.638,14.442,10.996,14.747,9.095z
		 M10.669,14.301c-0.102-0.6-0.498-2.689-1.458-5.182c-0.015,0.005-0.03,0.01-0.045,0.015c-3.854,1.343-5.238,4.017-5.361,4.268
		c1.159,0.902,2.615,1.441,4.194,1.441c0.947,0,1.849-0.193,2.669-0.543L10.669,14.301z M2.923,12.579
		c0.155-0.265,2.03-3.37,5.554-4.509c0.089-0.029,0.179-0.057,0.269-0.081c-0.172-0.389-0.358-0.777-0.554-1.16
		C4.78,7.85,1.468,7.808,1.169,7.801C1.167,7.87,1.166,7.94,1.166,8.01C1.166,9.765,1.831,11.367,2.923,12.579z M1.311,6.611
		c0.306,0.004,3.121,0.016,6.317-0.833C6.496,3.765,5.275,2.073,5.095,1.826C3.183,2.727,1.754,4.49,1.311,6.611L1.311,6.611z
		 M6.399,1.367c0.189,0.253,1.43,1.942,2.55,4c2.43-0.911,3.458-2.293,3.581-2.468C11.323,1.828,9.737,1.177,8,1.177
		C7.449,1.177,6.912,1.243,6.399,1.367z M13.289,3.69C13.145,3.884,12,5.352,9.473,6.383c0.159,0.325,0.311,0.657,0.453,0.99
		c0.05,0.118,0.099,0.236,0.147,0.353c2.274-0.285,4.533,0.173,4.758,0.221C14.816,6.333,14.24,4.852,13.289,3.69L13.289,3.69z"/>
</g>
<g id="Layer_29">
</g>
<g id="Layer_28">
</g>
<g id="Layer_27">
</g>
<g id="Layer_26">
</g>
<g id="Layer_25">
</g>
<g id="Layer_24">
</g>
<g id="Layer_23">
</g>
<g id="Layer_22">
</g>
<g id="Layer_21">
</g>
<g id="Layer_20">
</g>
<g id="Layer_19">
</g>
<g id="Layer_18">
</g>
<g id="Layer_17">
</g>
<g id="Layer_16">
</g>
<g id="Layer_15">
</g>
<g id="Layer_14">
</g>
<g id="Layer_13">
</g>
<g id="Layer_12">
</g>
<g id="Layer_11">
</g>
<g id="Layer_10">
</g>
<g id="Layer_9">
</g>
<g id="Layer_8">
</g>
<g id="Layer_7">
</g>
<g id="Layer_6">
</g>
<g id="Layer_5">
</g>
<g id="Layer_4">
</g>
<g id="Layer_3">
</g>
<g id="Layer_2">
</g>
</svg>
